<svg width="1119" height="419" viewBox="0 0 1119 419" fill="none" xmlns="http://www.w3.org/2000/svg">
<path d="M1097 61V62.875H1099.58V69H1101.45V62.875H1104.03V61H1097Z" fill="#AA00FF"/>
<path d="M1110.13 61L1108.48 64.3L1106.85 61H1104.98V69H1106.85V65.7L1108.48 69L1110.13 65.7V69H1112V61H1110.13Z" fill="#AA00FF"/>
<path d="M438.18 196.96C429.793 196.96 422.393 195.172 415.98 191.595C409.69 188.018 404.88 182.962 401.55 176.425L412.835 170.875C417.398 180.618 426.34 185.49 439.66 185.49C446.073 185.49 451.377 184.318 455.57 181.975C459.763 179.632 461.86 175.993 461.86 171.06C461.86 166.003 460.133 162.242 456.68 159.775C453.35 157.308 447.43 155.705 438.92 154.965C427.08 153.978 418.57 151.327 413.39 147.01C408.333 142.693 405.805 136.958 405.805 129.805C405.805 121.788 408.703 115.56 414.5 111.12C420.297 106.68 428.252 104.46 438.365 104.46C455.508 104.46 467.163 111.243 473.33 124.81L462.045 130.36C459.948 125.427 456.865 121.788 452.795 119.445C448.848 117.102 443.73 115.93 437.44 115.93C431.027 115.93 426.093 117.102 422.64 119.445C419.31 121.788 417.645 125.118 417.645 129.435C417.645 133.505 419.433 136.835 423.01 139.425C426.71 141.892 433 143.495 441.88 144.235C452.857 145.222 460.997 147.935 466.3 152.375C471.727 156.692 474.44 162.427 474.44 169.58C474.44 175.377 472.775 180.372 469.445 184.565C466.115 188.635 461.675 191.718 456.125 193.815C450.575 195.912 444.593 196.96 438.18 196.96Z" fill="#FF1744"/>
<path d="M552.485 104.46C560.749 104.46 568.149 106.433 574.685 110.38C581.222 114.327 586.34 119.815 590.04 126.845C593.74 133.875 595.59 141.892 595.59 150.895C595.59 159.775 593.74 167.73 590.04 174.76C586.464 181.667 581.407 187.093 574.87 191.04C568.457 194.987 561.119 196.96 552.855 196.96C546.565 196.96 540.769 195.603 535.465 192.89C530.285 190.053 525.907 186.107 522.33 181.05V231H509.75V107.42H522.33V120.185C525.907 115.252 530.285 111.428 535.465 108.715C540.645 105.878 546.319 104.46 552.485 104.46ZM552.855 185.49C558.652 185.49 563.832 184.01 568.395 181.05C572.959 178.09 576.535 174.02 579.125 168.84C581.715 163.537 583.01 157.555 583.01 150.895C583.01 144.112 581.715 138.068 579.125 132.765C576.535 127.462 572.959 123.33 568.395 120.37C563.832 117.41 558.652 115.93 552.855 115.93C546.935 115.93 541.632 117.41 536.945 120.37C532.382 123.33 528.805 127.462 526.215 132.765C523.625 138.068 522.33 144.05 522.33 150.71C522.33 157.37 523.625 163.352 526.215 168.655C528.805 173.958 532.382 178.09 536.945 181.05C541.632 184.01 546.935 185.49 552.855 185.49Z" fill="#FF6D00"/>
<path d="M709.837 107.42V194H697.257V181.235C693.68 186.168 689.302 190.053 684.122 192.89C678.942 195.603 673.268 196.96 667.102 196.96C658.838 196.96 651.438 194.987 644.902 191.04C638.365 187.093 633.247 181.605 629.547 174.575C625.847 167.545 623.997 159.528 623.997 150.525C623.997 141.645 625.785 133.752 629.362 126.845C633.062 119.815 638.118 114.327 644.532 110.38C651.068 106.433 658.468 104.46 666.732 104.46C673.022 104.46 678.757 105.878 683.937 108.715C689.24 111.428 693.68 115.313 697.257 120.37V107.42H709.837ZM666.732 185.49C672.652 185.49 677.893 184.01 682.457 181.05C687.143 178.09 690.782 173.958 693.372 168.655C695.962 163.352 697.257 157.37 697.257 150.71C697.257 144.05 695.962 138.068 693.372 132.765C690.782 127.462 687.143 123.33 682.457 120.37C677.893 117.41 672.652 115.93 666.732 115.93C660.935 115.93 655.755 117.41 651.192 120.37C646.628 123.33 643.052 127.462 640.462 132.765C637.872 137.945 636.577 143.865 636.577 150.525C636.577 157.308 637.872 163.352 640.462 168.655C643.052 173.958 646.628 178.09 651.192 181.05C655.755 184.01 660.935 185.49 666.732 185.49Z" fill="#FFD600"/>
<path d="M829.633 107.42V194H817.053V181.235C813.476 186.168 809.098 190.053 803.918 192.89C798.738 195.603 793.064 196.96 786.898 196.96C778.634 196.96 771.234 194.987 764.698 191.04C758.161 187.093 753.043 181.605 749.343 174.575C745.643 167.545 743.793 159.528 743.793 150.525C743.793 141.645 745.581 133.752 749.158 126.845C752.858 119.815 757.914 114.327 764.328 110.38C770.864 106.433 778.264 104.46 786.528 104.46C792.818 104.46 798.553 105.878 803.733 108.715C809.036 111.428 813.476 115.313 817.053 120.37V107.42H829.633ZM786.528 185.49C792.448 185.49 797.689 184.01 802.253 181.05C806.939 178.09 810.578 173.958 813.168 168.655C815.758 163.352 817.053 157.37 817.053 150.71C817.053 144.05 815.758 138.068 813.168 132.765C810.578 127.462 806.939 123.33 802.253 120.37C797.689 117.41 792.448 115.93 786.528 115.93C780.731 115.93 775.551 117.41 770.988 120.37C766.424 123.33 762.848 127.462 760.258 132.765C757.668 137.945 756.373 143.865 756.373 150.525C756.373 157.308 757.668 163.352 760.258 168.655C762.848 173.958 766.424 178.09 770.988 181.05C775.551 184.01 780.731 185.49 786.528 185.49Z" fill="#AEEA00"/>
<path d="M911.504 104.46C914.464 104.46 917.301 104.892 920.014 105.755V117.225C917.424 115.992 914.587 115.375 911.504 115.375C906.201 115.375 901.267 116.855 896.704 119.815C892.141 122.775 888.441 127.092 885.604 132.765C882.891 138.315 881.534 144.913 881.534 152.56V194H868.954V107.42H881.534V124.81C884.864 118.397 889.057 113.402 894.114 109.825C899.294 106.248 905.091 104.46 911.504 104.46Z" fill="#00C853"/>
<path d="M1001.2 194L970.864 149.415L960.319 159.59V194H947.739V59.69H960.319V143.68L998.244 107.42H1014.52L979.559 141.09L1015.26 194H1001.2Z" fill="#6DBCE1"/>
<path d="M1074.94 196.96C1066.55 196.96 1059.15 195.172 1052.74 191.595C1046.45 188.018 1041.64 182.962 1038.31 176.425L1049.59 170.875C1054.15 180.618 1063.1 185.49 1076.42 185.49C1082.83 185.49 1088.13 184.318 1092.33 181.975C1096.52 179.632 1098.62 175.993 1098.62 171.06C1098.62 166.003 1096.89 162.242 1093.44 159.775C1090.11 157.308 1084.19 155.705 1075.68 154.965C1063.84 153.978 1055.33 151.327 1050.15 147.01C1045.09 142.693 1042.56 136.958 1042.56 129.805C1042.56 121.788 1045.46 115.56 1051.26 111.12C1057.05 106.68 1065.01 104.46 1075.12 104.46C1092.26 104.46 1103.92 111.243 1110.09 124.81L1098.8 130.36C1096.7 125.427 1093.62 121.788 1089.55 119.445C1085.6 117.102 1080.49 115.93 1074.2 115.93C1067.78 115.93 1062.85 117.102 1059.4 119.445C1056.07 121.788 1054.4 125.118 1054.4 129.435C1054.4 133.505 1056.19 136.835 1059.77 139.425C1063.47 141.892 1069.76 143.495 1078.64 144.235C1089.61 145.222 1097.75 147.935 1103.06 152.375C1108.48 156.692 1111.2 162.427 1111.2 169.58C1111.2 175.377 1109.53 180.372 1106.2 184.565C1102.87 188.635 1098.43 191.718 1092.88 193.815C1087.33 195.912 1081.35 196.96 1074.94 196.96Z" fill="#2962FF"/>
<path d="M437.12 284.3C434.96 283.28 432.56 282.41 429.92 281.69C427.28 280.97 424.7 280.61 422.18 280.61C417.98 280.61 414.62 281.66 412.1 283.76C409.58 285.8 408.32 288.44 408.32 291.68C408.32 293.96 408.98 295.91 410.3 297.53C411.68 299.09 413.42 300.41 415.52 301.49C417.62 302.51 420.32 303.65 423.62 304.91C427.22 306.23 430.19 307.58 432.53 308.96C434.93 310.34 436.94 312.23 438.56 314.63C440.18 316.97 440.99 320 440.99 323.72C440.99 327.26 440.15 330.41 438.47 333.17C436.79 335.87 434.42 337.97 431.36 339.47C428.36 340.97 424.91 341.72 421.01 341.72C414.23 341.72 407.51 339.53 400.85 335.15L402.92 331.55C405.14 333.23 407.87 334.7 411.11 335.96C414.35 337.22 417.5 337.85 420.56 337.85C423.26 337.85 425.81 337.34 428.21 336.32C430.67 335.24 432.65 333.65 434.15 331.55C435.71 329.39 436.49 326.81 436.49 323.81C436.49 320.99 435.77 318.62 434.33 316.7C432.95 314.78 431.18 313.25 429.02 312.11C426.92 310.91 424.25 309.71 421.01 308.51C417.41 307.19 414.44 305.93 412.1 304.73C409.76 303.47 407.78 301.82 406.16 299.78C404.6 297.74 403.82 295.19 403.82 292.13C403.82 289.13 404.57 286.49 406.07 284.21C407.63 281.87 409.76 280.07 412.46 278.81C415.22 277.49 418.28 276.8 421.64 276.74C424.52 276.74 427.49 277.13 430.55 277.91C433.67 278.69 436.43 279.68 438.83 280.88L437.12 284.3ZM479.335 304.73C482.635 304.73 485.635 305.54 488.335 307.16C491.095 308.78 493.255 311.03 494.815 313.91C496.435 316.73 497.245 319.88 497.245 323.36C497.245 326.84 496.435 329.99 494.815 332.81C493.195 335.63 490.945 337.82 488.065 339.38C485.245 340.94 482.125 341.72 478.705 341.72C475.585 341.72 472.645 340.97 469.885 339.47C467.185 337.97 465.055 335.99 463.495 333.53V357.92H459.265V305.54H463.045L463.315 313.37C464.995 310.73 467.245 308.63 470.065 307.07C472.945 305.51 476.035 304.73 479.335 304.73ZM477.985 338.21C480.685 338.21 483.175 337.55 485.455 336.23C487.735 334.91 489.535 333.11 490.855 330.83C492.235 328.55 492.925 326.06 492.925 323.36C492.925 320.6 492.265 318.08 490.945 315.8C489.685 313.52 487.915 311.72 485.635 310.4C483.415 309.08 480.955 308.42 478.255 308.42C475.675 308.42 473.275 309.02 471.055 310.22C468.895 311.42 467.125 313.07 465.745 315.17C464.425 317.21 463.675 319.49 463.495 322.01V324.89C463.675 327.35 464.425 329.6 465.745 331.64C467.125 333.68 468.865 335.3 470.965 336.5C473.125 337.64 475.465 338.21 477.985 338.21ZM517.812 314.18C519.072 311.36 521.142 309.11 524.022 307.43C526.902 305.75 529.782 304.88 532.662 304.82L532.482 308.96C529.842 308.96 527.412 309.56 525.192 310.76C522.972 311.9 521.202 313.52 519.882 315.62C518.622 317.66 517.992 319.91 517.992 322.37V341H513.762V305.81H517.452L517.812 314.18ZM562.468 338.03C566.248 338.03 569.668 336.74 572.728 334.16L574.888 337.22C573.148 338.6 571.168 339.71 568.948 340.55C566.788 341.33 564.598 341.72 562.378 341.72C558.778 341.72 555.538 340.91 552.658 339.29C549.838 337.67 547.618 335.48 545.998 332.72C544.438 329.9 543.658 326.75 543.658 323.27C543.658 319.91 544.498 316.82 546.178 314C547.858 311.12 550.138 308.84 553.018 307.16C555.898 305.48 559.048 304.64 562.468 304.64C566.548 304.64 570.028 305.84 572.908 308.24C575.788 310.64 577.888 313.88 579.208 317.96L549.148 329.57C550.288 332.09 552.028 334.13 554.368 335.69C556.768 337.25 559.468 338.03 562.468 338.03ZM562.198 308.24C559.558 308.24 557.128 308.9 554.908 310.22C552.688 311.54 550.948 313.34 549.688 315.62C548.428 317.84 547.798 320.33 547.798 323.09C547.798 324.35 547.918 325.46 548.158 326.42L574.078 316.25C572.938 313.85 571.348 311.93 569.308 310.49C567.268 308.99 564.898 308.24 562.198 308.24ZM629.185 305.81V341H624.955V333.53C623.575 335.81 621.475 337.76 618.655 339.38C615.835 340.94 612.775 341.72 609.475 341.72C606.115 341.72 603.055 340.97 600.295 339.47C597.595 337.91 595.435 335.75 593.815 332.99C592.255 330.17 591.475 326.96 591.475 323.36C591.475 319.52 592.285 316.22 593.905 313.46C595.585 310.64 597.865 308.48 600.745 306.98C603.685 305.48 606.985 304.73 610.645 304.73C613.525 304.73 616.285 305.54 618.925 307.16C621.565 308.78 623.575 310.88 624.955 313.46L625.405 305.81H629.185ZM610.375 338.12C614.335 338.12 617.695 336.89 620.455 334.43C623.215 331.97 624.715 328.82 624.955 324.98V319.94C624.235 316.64 622.495 313.88 619.735 311.66C616.975 309.44 613.825 308.33 610.285 308.33C607.585 308.33 605.125 308.96 602.905 310.22C600.685 311.42 598.915 313.16 597.595 315.44C596.335 317.66 595.705 320.24 595.705 323.18C595.705 325.88 596.365 328.37 597.685 330.65C599.005 332.93 600.775 334.76 602.995 336.14C605.275 337.46 607.735 338.12 610.375 338.12ZM683.688 272.6V341H679.368V333.71C677.748 336.11 675.528 338.06 672.708 339.56C669.888 341 666.828 341.72 663.528 341.72C660.228 341.72 657.198 340.94 654.438 339.38C651.738 337.76 649.608 335.54 648.048 332.72C646.488 329.84 645.708 326.66 645.708 323.18C645.708 319.52 646.518 316.28 648.138 313.46C649.758 310.64 651.948 308.48 654.708 306.98C657.468 305.48 660.558 304.73 663.978 304.73C667.038 304.73 669.978 305.48 672.798 306.98C675.678 308.48 677.898 310.46 679.458 312.92V272.6H683.688ZM664.608 338.03C668.628 338.03 672.018 336.77 674.778 334.25C677.538 331.73 679.068 328.55 679.368 324.71V320.21C678.708 316.79 676.968 313.94 674.148 311.66C671.388 309.38 668.208 308.24 664.608 308.24C661.908 308.24 659.448 308.87 657.228 310.13C655.008 311.39 653.238 313.16 651.918 315.44C650.598 317.66 649.938 320.21 649.938 323.09C649.938 325.79 650.598 328.28 651.918 330.56C653.238 332.84 655.008 334.67 657.228 336.05C659.508 337.37 661.968 338.03 664.608 338.03ZM707.855 305.81V341H703.625V305.81H707.855ZM702.725 292.85C702.725 292.01 703.025 291.32 703.625 290.78C704.285 290.18 705.035 289.88 705.875 289.88C706.715 289.88 707.435 290.18 708.035 290.78C708.635 291.32 708.935 292.01 708.935 292.85C708.935 293.75 708.635 294.5 708.035 295.1C707.435 295.64 706.715 295.91 705.875 295.91C705.035 295.91 704.285 295.61 703.625 295.01C703.025 294.41 702.725 293.69 702.725 292.85ZM746.7 304.82C749.94 304.82 752.58 305.81 754.62 307.79C756.66 309.71 757.74 312.23 757.86 315.35V341H753.54V316.52C753.42 314.18 752.67 312.29 751.29 310.85C749.91 309.35 747.93 308.57 745.35 308.51C742.95 308.51 740.73 309.08 738.69 310.22C736.71 311.36 735.09 312.98 733.83 315.08C732.63 317.12 732.03 319.46 732.03 322.1V341H727.8V305.81H731.49L731.85 313.64C732.99 310.94 734.91 308.81 737.61 307.25C740.37 305.63 743.4 304.82 746.7 304.82ZM812.555 305.81V341.54C812.555 346.34 810.965 350.3 807.785 353.42C804.665 356.6 799.895 358.19 793.475 358.19C790.415 358.19 787.595 357.62 785.015 356.48C782.435 355.4 779.795 353.57 777.095 350.99L779.615 348.11C782.015 350.45 784.325 352.07 786.545 352.97C788.765 353.93 791.015 354.41 793.295 354.41C798.455 354.41 802.205 353.24 804.545 350.9C806.885 348.56 808.115 345.41 808.235 341.45L808.325 333.17C806.765 335.75 804.545 337.82 801.665 339.38C798.845 340.94 795.755 341.72 792.395 341.72C789.095 341.72 786.065 340.91 783.305 339.29C780.605 337.67 778.445 335.45 776.825 332.63C775.205 329.81 774.395 326.69 774.395 323.27C774.395 319.73 775.235 316.55 776.915 313.73C778.595 310.91 780.875 308.72 783.755 307.16C786.635 305.54 789.815 304.73 793.295 304.73C796.355 304.73 799.295 305.51 802.115 307.07C804.935 308.57 807.035 310.58 808.415 313.1L808.775 305.81H812.555ZM793.475 338.12C796.055 338.12 798.425 337.55 800.585 336.41C802.805 335.21 804.605 333.62 805.985 331.64C807.365 329.66 808.145 327.53 808.325 325.25V320.03C807.605 316.61 805.835 313.82 803.015 311.66C800.255 309.44 797.075 308.33 793.475 308.33C790.715 308.33 788.195 308.96 785.915 310.22C783.635 311.48 781.835 313.25 780.515 315.53C779.255 317.75 778.625 320.3 778.625 323.18C778.625 325.88 779.285 328.37 780.605 330.65C781.925 332.93 783.725 334.76 786.005 336.14C788.285 337.46 790.775 338.12 793.475 338.12ZM898.243 284.3C896.083 283.28 893.683 282.41 891.043 281.69C888.403 280.97 885.823 280.61 883.303 280.61C879.103 280.61 875.743 281.66 873.223 283.76C870.703 285.8 869.443 288.44 869.443 291.68C869.443 293.96 870.103 295.91 871.423 297.53C872.803 299.09 874.543 300.41 876.643 301.49C878.743 302.51 881.443 303.65 884.743 304.91C888.343 306.23 891.313 307.58 893.653 308.96C896.053 310.34 898.063 312.23 899.683 314.63C901.303 316.97 902.113 320 902.113 323.72C902.113 327.26 901.273 330.41 899.593 333.17C897.913 335.87 895.543 337.97 892.483 339.47C889.483 340.97 886.033 341.72 882.133 341.72C875.353 341.72 868.633 339.53 861.973 335.15L864.043 331.55C866.263 333.23 868.993 334.7 872.233 335.96C875.473 337.22 878.623 337.85 881.683 337.85C884.383 337.85 886.933 337.34 889.333 336.32C891.793 335.24 893.773 333.65 895.273 331.55C896.833 329.39 897.613 326.81 897.613 323.81C897.613 320.99 896.893 318.62 895.453 316.7C894.073 314.78 892.303 313.25 890.143 312.11C888.043 310.91 885.373 309.71 882.133 308.51C878.533 307.19 875.563 305.93 873.223 304.73C870.883 303.47 868.903 301.82 867.283 299.78C865.723 297.74 864.943 295.19 864.943 292.13C864.943 289.13 865.693 286.49 867.193 284.21C868.753 281.87 870.883 280.07 873.583 278.81C876.343 277.49 879.403 276.8 882.763 276.74C885.643 276.74 888.613 277.13 891.673 277.91C894.793 278.69 897.553 279.68 899.953 280.88L898.243 284.3ZM964.128 304.82C967.428 304.82 970.068 305.78 972.048 307.7C974.028 309.62 975.078 312.17 975.198 315.35V341H970.968V316.25C970.848 314.09 970.128 312.29 968.808 310.85C967.548 309.41 965.688 308.63 963.228 308.51C960.888 308.51 958.728 309.11 956.748 310.31C954.768 311.51 953.148 313.13 951.888 315.17C950.688 317.15 950.028 319.34 949.908 321.74V341H945.678V316.25C945.558 314.09 944.838 312.29 943.518 310.85C942.198 309.41 940.308 308.63 937.848 308.51C935.508 308.51 933.318 309.11 931.278 310.31C929.238 311.51 927.618 313.16 926.418 315.26C925.218 317.36 924.618 319.64 924.618 322.1V341H920.388V305.81H924.078L924.438 313.55C925.758 310.85 927.738 308.72 930.378 307.16C933.018 305.6 935.898 304.82 939.018 304.82C941.838 304.82 944.268 305.6 946.308 307.16C948.348 308.66 949.548 310.61 949.908 313.01C951.288 310.43 953.238 308.42 955.758 306.98C958.338 305.54 961.128 304.82 964.128 304.82ZM999.418 305.81V341H995.188V305.81H999.418ZM994.288 292.85C994.288 292.01 994.588 291.32 995.188 290.78C995.848 290.18 996.598 289.88 997.438 289.88C998.278 289.88 998.998 290.18 999.598 290.78C1000.2 291.32 1000.5 292.01 1000.5 292.85C1000.5 293.75 1000.2 294.5 999.598 295.1C998.998 295.64 998.278 295.91 997.438 295.91C996.598 295.91 995.848 295.61 995.188 295.01C994.588 294.41 994.288 293.69 994.288 292.85ZM1023.59 272.6V341H1019.36V272.6H1023.59ZM1058.93 338.03C1062.71 338.03 1066.13 336.74 1069.19 334.16L1071.35 337.22C1069.61 338.6 1067.63 339.71 1065.41 340.55C1063.25 341.33 1061.06 341.72 1058.84 341.72C1055.24 341.72 1052 340.91 1049.12 339.29C1046.3 337.67 1044.08 335.48 1042.46 332.72C1040.9 329.9 1040.12 326.75 1040.12 323.27C1040.12 319.91 1040.96 316.82 1042.64 314C1044.32 311.12 1046.6 308.84 1049.48 307.16C1052.36 305.48 1055.51 304.64 1058.93 304.64C1063.01 304.64 1066.49 305.84 1069.37 308.24C1072.25 310.64 1074.35 313.88 1075.67 317.96L1045.61 329.57C1046.75 332.09 1048.49 334.13 1050.83 335.69C1053.23 337.25 1055.93 338.03 1058.93 338.03ZM1058.66 308.24C1056.02 308.24 1053.59 308.9 1051.37 310.22C1049.15 311.54 1047.41 313.34 1046.15 315.62C1044.89 317.84 1044.26 320.33 1044.26 323.09C1044.26 324.35 1044.38 325.46 1044.62 326.42L1070.54 316.25C1069.4 313.85 1067.81 311.93 1065.77 310.49C1063.73 308.99 1061.36 308.24 1058.66 308.24ZM1099.64 341.72C1097.36 341.72 1095.14 341.33 1092.98 340.55C1090.88 339.77 1089.17 338.57 1087.85 336.95L1089.83 334.16C1091.03 335.42 1092.47 336.44 1094.15 337.22C1095.83 337.94 1097.57 338.3 1099.37 338.3C1101.65 338.3 1103.57 337.79 1105.13 336.77C1106.69 335.69 1107.47 334.04 1107.47 331.82C1107.47 330.26 1107.05 329.03 1106.21 328.13C1105.37 327.17 1104.41 326.48 1103.33 326.06C1102.25 325.58 1100.51 324.95 1098.11 324.17C1095.29 323.21 1093.1 322.01 1091.54 320.57C1090.04 319.07 1089.29 317.09 1089.29 314.63C1089.29 311.75 1090.28 309.44 1092.26 307.7C1094.3 305.9 1096.88 305 1100 305C1104.32 305 1107.83 306.32 1110.53 308.96L1108.64 311.93C1107.74 310.73 1106.54 309.86 1105.04 309.32C1103.6 308.78 1102.13 308.48 1100.63 308.42C1098.83 308.42 1097.18 308.93 1095.68 309.95C1094.24 310.91 1093.52 312.29 1093.52 314.09C1093.52 315.95 1094.18 317.36 1095.5 318.32C1096.82 319.22 1098.83 320.15 1101.53 321.11C1104.83 322.19 1107.35 323.42 1109.09 324.8C1110.83 326.12 1111.7 328.16 1111.7 330.92C1111.7 334.16 1110.65 336.77 1108.55 338.75C1106.51 340.73 1103.54 341.72 1099.64 341.72Z" fill="#AA00FF"/>
<rect x="178.403" y="52" width="10.1944" height="110.978" fill="#FF1744"/>
<rect width="10.2592" height="110.286" transform="matrix(0.702646 0.71154 -0.702646 0.71154 293.614 115.49)" fill="#FF6D00"/>
<rect width="10.2592" height="110.286" transform="matrix(0.702646 0.71154 -0.702646 0.71154 137.2 272.818)" fill="#6DBCE1"/>
<rect x="367" y="232.661" width="10.3235" height="109.59" transform="rotate(90 367 232.661)" fill="#FFD600"/>
<rect x="109.59" y="232.661" width="10.3235" height="109.59" transform="rotate(90 109.59 232.661)" fill="#2962FF"/>
<rect width="10.2592" height="110.286" transform="matrix(-0.702646 0.71154 -0.702646 -0.71154 300.886 351.291)" fill="#AEEA00"/>
<rect width="10.2592" height="110.286" transform="matrix(-0.702646 0.71154 -0.702646 -0.71154 144.575 193.962)" fill="#AA00FF"/>
<rect x="188.29" y="418.797" width="10.1944" height="110.978" transform="rotate(-180 188.29 418.797)" fill="#00C853"/>
</svg>
