<svg width="413" height="393" viewBox="0 0 413 393" fill="none" xmlns="http://www.w3.org/2000/svg">
<g filter="url(#filter0_d)">
<path d="M20 53C20 36.4315 33.4315 23 50 23H363C379.569 23 393 36.4315 393 53V342C393 358.569 379.569 372 363 372H50C33.4315 372 20 358.569 20 342V53Z" fill="white"/>
</g>
<path d="M130.937 285.831C130.132 285.6 129.547 285.317 129.179 284.981C128.814 284.643 128.632 284.226 128.632 283.731C128.632 283.172 128.855 282.709 129.301 282.345C129.75 281.977 130.333 281.793 131.049 281.793C131.537 281.793 131.972 281.887 132.353 282.076C132.737 282.265 133.033 282.525 133.241 282.857C133.453 283.189 133.559 283.552 133.559 283.946H132.616C132.616 283.517 132.479 283.18 132.206 282.936C131.933 282.688 131.547 282.564 131.049 282.564C130.587 282.564 130.225 282.667 129.965 282.872C129.708 283.074 129.579 283.355 129.579 283.717C129.579 284.007 129.701 284.252 129.945 284.454C130.193 284.653 130.611 284.835 131.2 285.001C131.793 285.167 132.255 285.351 132.587 285.553C132.922 285.751 133.17 285.984 133.329 286.251C133.492 286.518 133.573 286.832 133.573 287.193C133.573 287.77 133.349 288.232 132.899 288.58C132.45 288.925 131.85 289.098 131.098 289.098C130.609 289.098 130.154 289.005 129.73 288.819C129.307 288.631 128.98 288.373 128.749 288.048C128.521 287.722 128.407 287.353 128.407 286.939H129.35C129.35 287.369 129.507 287.709 129.823 287.96C130.142 288.207 130.567 288.331 131.098 288.331C131.592 288.331 131.972 288.23 132.235 288.028C132.499 287.826 132.631 287.551 132.631 287.203C132.631 286.855 132.509 286.586 132.265 286.397C132.021 286.205 131.578 286.017 130.937 285.831ZM139.315 287.755L140.331 283.717H141.234L139.696 289H138.964L137.68 284.996L136.43 289H135.697L134.164 283.717H135.062L136.103 287.672L137.333 283.717H138.061L139.315 287.755ZM143.139 289H142.235V283.717H143.139V289ZM142.162 282.315C142.162 282.169 142.206 282.045 142.294 281.944C142.385 281.843 142.519 281.793 142.694 281.793C142.87 281.793 143.004 281.843 143.095 281.944C143.186 282.045 143.231 282.169 143.231 282.315C143.231 282.462 143.186 282.584 143.095 282.682C143.004 282.779 142.87 282.828 142.694 282.828C142.519 282.828 142.385 282.779 142.294 282.682C142.206 282.584 142.162 282.462 142.162 282.315ZM149.052 286.417C149.052 287.221 148.868 287.869 148.5 288.36C148.132 288.852 147.634 289.098 147.006 289.098C146.365 289.098 145.86 288.894 145.492 288.487V291.031H144.589V283.717H145.414L145.458 284.303C145.826 283.847 146.337 283.619 146.991 283.619C147.626 283.619 148.127 283.858 148.495 284.337C148.866 284.815 149.052 285.481 149.052 286.334V286.417ZM148.148 286.314C148.148 285.719 148.021 285.248 147.768 284.903C147.514 284.558 147.165 284.386 146.723 284.386C146.176 284.386 145.766 284.628 145.492 285.113V287.638C145.762 288.119 146.176 288.36 146.732 288.36C147.165 288.36 147.509 288.189 147.763 287.848C148.02 287.503 148.148 286.992 148.148 286.314ZM152.396 289.098C151.68 289.098 151.098 288.863 150.648 288.395C150.199 287.923 149.975 287.293 149.975 286.505V286.339C149.975 285.815 150.074 285.348 150.272 284.938C150.474 284.524 150.754 284.202 151.112 283.971C151.474 283.736 151.864 283.619 152.284 283.619C152.971 283.619 153.505 283.845 153.886 284.298C154.267 284.75 154.457 285.398 154.457 286.241V286.617H150.878C150.891 287.138 151.042 287.56 151.332 287.882C151.625 288.201 151.996 288.36 152.445 288.36C152.764 288.36 153.035 288.295 153.256 288.165C153.477 288.035 153.671 287.862 153.837 287.647L154.389 288.077C153.946 288.757 153.282 289.098 152.396 289.098ZM152.284 284.361C151.92 284.361 151.614 284.495 151.366 284.762C151.119 285.025 150.966 285.396 150.907 285.875H153.554V285.807C153.528 285.348 153.404 284.993 153.183 284.742C152.961 284.488 152.662 284.361 152.284 284.361ZM159.213 282.438V283.717H160.199V284.415H159.213V287.691C159.213 287.903 159.257 288.062 159.345 288.17C159.433 288.274 159.582 288.326 159.794 288.326C159.898 288.326 160.041 288.307 160.224 288.268V289C159.986 289.065 159.755 289.098 159.53 289.098C159.127 289.098 158.822 288.976 158.617 288.731C158.412 288.487 158.31 288.141 158.31 287.691V284.415H157.348V283.717H158.31V282.438H159.213ZM160.922 286.31C160.922 285.792 161.023 285.326 161.225 284.913C161.43 284.5 161.713 284.181 162.074 283.956C162.439 283.731 162.854 283.619 163.319 283.619C164.039 283.619 164.62 283.868 165.062 284.366C165.508 284.864 165.731 285.527 165.731 286.354V286.417C165.731 286.931 165.632 287.394 165.434 287.804C165.238 288.211 164.957 288.528 164.589 288.756C164.224 288.984 163.804 289.098 163.329 289.098C162.613 289.098 162.032 288.849 161.586 288.351C161.143 287.853 160.922 287.193 160.922 286.373V286.31ZM161.83 286.417C161.83 287.003 161.965 287.473 162.235 287.828C162.509 288.183 162.873 288.36 163.329 288.36C163.788 288.36 164.153 288.181 164.423 287.823C164.693 287.462 164.828 286.957 164.828 286.31C164.828 285.73 164.69 285.261 164.413 284.903C164.14 284.542 163.775 284.361 163.319 284.361C162.873 284.361 162.514 284.539 162.24 284.894C161.967 285.248 161.83 285.756 161.83 286.417ZM171.088 287.774L172.396 283.717H173.319L171.425 289H170.736L168.822 283.717H169.745L171.088 287.774ZM175.17 289H174.267V283.717H175.17V289ZM174.193 282.315C174.193 282.169 174.237 282.045 174.325 281.944C174.416 281.843 174.55 281.793 174.726 281.793C174.901 281.793 175.035 281.843 175.126 281.944C175.217 282.045 175.263 282.169 175.263 282.315C175.263 282.462 175.217 282.584 175.126 282.682C175.035 282.779 174.901 282.828 174.726 282.828C174.55 282.828 174.416 282.779 174.325 282.682C174.237 282.584 174.193 282.462 174.193 282.315ZM178.812 289.098C178.096 289.098 177.514 288.863 177.064 288.395C176.615 287.923 176.391 287.293 176.391 286.505V286.339C176.391 285.815 176.49 285.348 176.688 284.938C176.89 284.524 177.17 284.202 177.528 283.971C177.89 283.736 178.28 283.619 178.7 283.619C179.387 283.619 179.921 283.845 180.302 284.298C180.683 284.75 180.873 285.398 180.873 286.241V286.617H177.294C177.307 287.138 177.458 287.56 177.748 287.882C178.041 288.201 178.412 288.36 178.861 288.36C179.18 288.36 179.451 288.295 179.672 288.165C179.893 288.035 180.087 287.862 180.253 287.647L180.805 288.077C180.362 288.757 179.698 289.098 178.812 289.098ZM178.7 284.361C178.336 284.361 178.03 284.495 177.782 284.762C177.535 285.025 177.382 285.396 177.323 285.875H179.97V285.807C179.944 285.348 179.82 284.993 179.599 284.742C179.377 284.488 179.078 284.361 178.7 284.361ZM186.601 287.755L187.616 283.717H188.52L186.981 289H186.249L184.965 284.996L183.715 289H182.982L181.449 283.717H182.348L183.388 287.672L184.618 283.717H185.346L186.601 287.755ZM196.386 286.417C196.386 287.221 196.202 287.869 195.834 288.36C195.466 288.852 194.968 289.098 194.34 289.098C193.699 289.098 193.194 288.894 192.826 288.487V291.031H191.923V283.717H192.748L192.792 284.303C193.16 283.847 193.671 283.619 194.325 283.619C194.96 283.619 195.461 283.858 195.829 284.337C196.2 284.815 196.386 285.481 196.386 286.334V286.417ZM195.482 286.314C195.482 285.719 195.355 285.248 195.102 284.903C194.848 284.558 194.499 284.386 194.057 284.386C193.51 284.386 193.1 284.628 192.826 285.113V287.638C193.096 288.119 193.51 288.36 194.066 288.36C194.499 288.36 194.843 288.189 195.097 287.848C195.354 287.503 195.482 286.992 195.482 286.314ZM197.299 286.31C197.299 285.792 197.4 285.326 197.602 284.913C197.807 284.5 198.09 284.181 198.451 283.956C198.816 283.731 199.231 283.619 199.696 283.619C200.416 283.619 200.997 283.868 201.439 284.366C201.885 284.864 202.108 285.527 202.108 286.354V286.417C202.108 286.931 202.009 287.394 201.811 287.804C201.615 288.211 201.334 288.528 200.966 288.756C200.601 288.984 200.181 289.098 199.706 289.098C198.99 289.098 198.409 288.849 197.963 288.351C197.52 287.853 197.299 287.193 197.299 286.373V286.31ZM198.207 286.417C198.207 287.003 198.342 287.473 198.612 287.828C198.886 288.183 199.25 288.36 199.706 288.36C200.165 288.36 200.53 288.181 200.8 287.823C201.07 287.462 201.205 286.957 201.205 286.31C201.205 285.73 201.067 285.261 200.79 284.903C200.517 284.542 200.152 284.361 199.696 284.361C199.25 284.361 198.891 284.539 198.617 284.894C198.344 285.248 198.207 285.756 198.207 286.417ZM206.317 287.599C206.317 287.354 206.225 287.166 206.039 287.032C205.857 286.896 205.536 286.778 205.077 286.681C204.621 286.583 204.258 286.466 203.988 286.329C203.721 286.192 203.523 286.03 203.393 285.841C203.266 285.652 203.202 285.427 203.202 285.167C203.202 284.734 203.384 284.368 203.749 284.068C204.117 283.769 204.586 283.619 205.155 283.619C205.754 283.619 206.239 283.774 206.61 284.083C206.985 284.392 207.172 284.788 207.172 285.27H206.264C206.264 285.022 206.158 284.809 205.946 284.63C205.738 284.451 205.474 284.361 205.155 284.361C204.826 284.361 204.569 284.433 204.384 284.576C204.198 284.719 204.105 284.907 204.105 285.138C204.105 285.356 204.192 285.52 204.364 285.631C204.537 285.742 204.848 285.847 205.297 285.948C205.749 286.049 206.116 286.17 206.396 286.31C206.675 286.45 206.882 286.619 207.016 286.817C207.152 287.013 207.221 287.252 207.221 287.535C207.221 288.007 207.032 288.386 206.654 288.673C206.277 288.956 205.787 289.098 205.185 289.098C204.761 289.098 204.387 289.023 204.062 288.873C203.736 288.723 203.48 288.515 203.295 288.248C203.113 287.978 203.021 287.687 203.021 287.374H203.925C203.941 287.677 204.062 287.918 204.286 288.097C204.514 288.272 204.813 288.36 205.185 288.36C205.526 288.36 205.8 288.292 206.005 288.155C206.213 288.015 206.317 287.83 206.317 287.599ZM209.623 282.438V283.717H210.609V284.415H209.623V287.691C209.623 287.903 209.667 288.062 209.755 288.17C209.843 288.274 209.993 288.326 210.204 288.326C210.308 288.326 210.451 288.307 210.634 288.268V289C210.396 289.065 210.165 289.098 209.94 289.098C209.537 289.098 209.232 288.976 209.027 288.731C208.822 288.487 208.72 288.141 208.72 287.691V284.415H207.758V283.717H208.72V282.438H209.623ZM214.745 287.599C214.745 287.354 214.652 287.166 214.467 287.032C214.285 286.896 213.964 286.778 213.505 286.681C213.049 286.583 212.686 286.466 212.416 286.329C212.149 286.192 211.951 286.03 211.82 285.841C211.693 285.652 211.63 285.427 211.63 285.167C211.63 284.734 211.812 284.368 212.177 284.068C212.545 283.769 213.013 283.619 213.583 283.619C214.182 283.619 214.667 283.774 215.038 284.083C215.412 284.392 215.6 284.788 215.6 285.27H214.691C214.691 285.022 214.586 284.809 214.374 284.63C214.166 284.451 213.902 284.361 213.583 284.361C213.254 284.361 212.997 284.433 212.812 284.576C212.626 284.719 212.533 284.907 212.533 285.138C212.533 285.356 212.619 285.52 212.792 285.631C212.965 285.742 213.275 285.847 213.725 285.948C214.177 286.049 214.543 286.17 214.823 286.31C215.103 286.45 215.31 286.619 215.443 286.817C215.58 287.013 215.648 287.252 215.648 287.535C215.648 288.007 215.46 288.386 215.082 288.673C214.704 288.956 214.215 289.098 213.612 289.098C213.189 289.098 212.815 289.023 212.489 288.873C212.164 288.723 211.908 288.515 211.723 288.248C211.54 287.978 211.449 287.687 211.449 287.374H212.353C212.369 287.677 212.489 287.918 212.714 288.097C212.942 288.272 213.241 288.36 213.612 288.36C213.954 288.36 214.228 288.292 214.433 288.155C214.641 288.015 214.745 287.83 214.745 287.599ZM220.287 289H219.384V283.717H220.287V289ZM219.311 282.315C219.311 282.169 219.354 282.045 219.442 281.944C219.534 281.843 219.667 281.793 219.843 281.793C220.019 281.793 220.152 281.843 220.243 281.944C220.334 282.045 220.38 282.169 220.38 282.315C220.38 282.462 220.334 282.584 220.243 282.682C220.152 282.779 220.019 282.828 219.843 282.828C219.667 282.828 219.534 282.779 219.442 282.682C219.354 282.584 219.311 282.462 219.311 282.315ZM222.592 283.717L222.621 284.381C223.025 283.873 223.552 283.619 224.203 283.619C225.32 283.619 225.883 284.249 225.893 285.509V289H224.989V285.504C224.986 285.123 224.898 284.841 224.726 284.659C224.556 284.477 224.291 284.386 223.93 284.386C223.637 284.386 223.38 284.464 223.158 284.62C222.937 284.776 222.764 284.981 222.641 285.235V289H221.737V283.717H222.592ZM229.496 286.31C229.496 285.792 229.597 285.326 229.799 284.913C230.004 284.5 230.287 284.181 230.648 283.956C231.013 283.731 231.428 283.619 231.894 283.619C232.613 283.619 233.194 283.868 233.637 284.366C234.083 284.864 234.306 285.527 234.306 286.354V286.417C234.306 286.931 234.206 287.394 234.008 287.804C233.812 288.211 233.531 288.528 233.163 288.756C232.799 288.984 232.379 289.098 231.903 289.098C231.187 289.098 230.606 288.849 230.16 288.351C229.717 287.853 229.496 287.193 229.496 286.373V286.31ZM230.404 286.417C230.404 287.003 230.539 287.473 230.81 287.828C231.083 288.183 231.448 288.36 231.903 288.36C232.362 288.36 232.727 288.181 232.997 287.823C233.267 287.462 233.402 286.957 233.402 286.31C233.402 285.73 233.264 285.261 232.987 284.903C232.714 284.542 232.349 284.361 231.894 284.361C231.448 284.361 231.088 284.539 230.814 284.894C230.541 285.248 230.404 285.756 230.404 286.417ZM236.664 282.438V283.717H237.65V284.415H236.664V287.691C236.664 287.903 236.708 288.062 236.796 288.17C236.884 288.274 237.034 288.326 237.245 288.326C237.349 288.326 237.493 288.307 237.675 288.268V289C237.437 289.065 237.206 289.098 236.981 289.098C236.578 289.098 236.273 288.976 236.068 288.731C235.863 288.487 235.761 288.141 235.761 287.691V284.415H234.799V283.717H235.761V282.438H236.664ZM239.613 284.356C240.014 283.865 240.535 283.619 241.176 283.619C242.292 283.619 242.855 284.249 242.865 285.509V289H241.962V285.504C241.959 285.123 241.871 284.841 241.698 284.659C241.529 284.477 241.264 284.386 240.902 284.386C240.609 284.386 240.352 284.464 240.131 284.62C239.91 284.776 239.737 284.981 239.613 285.235V289H238.71V281.5H239.613V284.356ZM246.41 289.098C245.694 289.098 245.111 288.863 244.662 288.395C244.213 287.923 243.988 287.293 243.988 286.505V286.339C243.988 285.815 244.088 285.348 244.286 284.938C244.488 284.524 244.768 284.202 245.126 283.971C245.487 283.736 245.878 283.619 246.298 283.619C246.985 283.619 247.519 283.845 247.899 284.298C248.28 284.75 248.471 285.398 248.471 286.241V286.617H244.892C244.905 287.138 245.056 287.56 245.346 287.882C245.639 288.201 246.01 288.36 246.459 288.36C246.778 288.36 247.048 288.295 247.27 288.165C247.491 288.035 247.685 287.862 247.851 287.647L248.402 288.077C247.96 288.757 247.296 289.098 246.41 289.098ZM246.298 284.361C245.933 284.361 245.627 284.495 245.38 284.762C245.132 285.025 244.979 285.396 244.921 285.875H247.567V285.807C247.541 285.348 247.418 284.993 247.196 284.742C246.975 284.488 246.675 284.361 246.298 284.361ZM252.074 284.527C251.938 284.505 251.789 284.493 251.63 284.493C251.037 284.493 250.635 284.745 250.424 285.25V289H249.521V283.717H250.399L250.414 284.327C250.71 283.855 251.13 283.619 251.674 283.619C251.85 283.619 251.983 283.642 252.074 283.688V284.527ZM255.834 289V284.415H254.999V283.717H255.834V283.175C255.834 282.608 255.985 282.171 256.288 281.861C256.591 281.552 257.019 281.397 257.572 281.397C257.781 281.397 257.987 281.425 258.192 281.48L258.144 282.213C257.991 282.184 257.828 282.169 257.655 282.169C257.362 282.169 257.136 282.255 256.977 282.428C256.817 282.597 256.737 282.841 256.737 283.16V283.717H257.865V284.415H256.737V289H255.834ZM260.941 289.098C260.225 289.098 259.643 288.863 259.193 288.395C258.744 287.923 258.52 287.293 258.52 286.505V286.339C258.52 285.815 258.619 285.348 258.817 284.938C259.019 284.524 259.299 284.202 259.657 283.971C260.019 283.736 260.409 283.619 260.829 283.619C261.516 283.619 262.05 283.845 262.431 284.298C262.812 284.75 263.002 285.398 263.002 286.241V286.617H259.423C259.436 287.138 259.587 287.56 259.877 287.882C260.17 288.201 260.541 288.36 260.99 288.36C261.309 288.36 261.579 288.295 261.801 288.165C262.022 288.035 262.216 287.862 262.382 287.647L262.934 288.077C262.491 288.757 261.827 289.098 260.941 289.098ZM260.829 284.361C260.465 284.361 260.159 284.495 259.911 284.762C259.664 285.025 259.511 285.396 259.452 285.875H262.099V285.807C262.073 285.348 261.949 284.993 261.728 284.742C261.506 284.488 261.207 284.361 260.829 284.361ZM267.313 289C267.261 288.896 267.219 288.71 267.187 288.443C266.767 288.88 266.265 289.098 265.683 289.098C265.162 289.098 264.734 288.951 264.398 288.658C264.066 288.362 263.9 287.988 263.9 287.535C263.9 286.985 264.109 286.559 264.525 286.256C264.945 285.95 265.535 285.797 266.293 285.797H267.172V285.382C267.172 285.066 267.077 284.815 266.889 284.63C266.7 284.441 266.422 284.347 266.054 284.347C265.731 284.347 265.461 284.428 265.243 284.591C265.025 284.754 264.916 284.951 264.916 285.182H264.008C264.008 284.918 264.101 284.664 264.286 284.42C264.475 284.173 264.729 283.977 265.048 283.834C265.37 283.691 265.723 283.619 266.107 283.619C266.716 283.619 267.193 283.772 267.538 284.078C267.883 284.381 268.062 284.799 268.075 285.333V287.765C268.075 288.25 268.137 288.635 268.261 288.922V289H267.313ZM265.814 288.312C266.098 288.312 266.366 288.238 266.62 288.092C266.874 287.945 267.058 287.755 267.172 287.521V286.437H266.464C265.357 286.437 264.804 286.76 264.804 287.408C264.804 287.691 264.898 287.913 265.087 288.072C265.276 288.232 265.518 288.312 265.814 288.312ZM270.717 282.438V283.717H271.703V284.415H270.717V287.691C270.717 287.903 270.761 288.062 270.849 288.17C270.937 288.274 271.086 288.326 271.298 288.326C271.402 288.326 271.545 288.307 271.728 288.268V289C271.49 289.065 271.259 289.098 271.034 289.098C270.631 289.098 270.326 288.976 270.121 288.731C269.916 288.487 269.813 288.141 269.813 287.691V284.415H268.852V283.717H269.813V282.438H270.717ZM276.024 288.478C275.673 288.891 275.157 289.098 274.477 289.098C273.913 289.098 273.484 288.935 273.188 288.609C272.895 288.281 272.746 287.796 272.743 287.154V283.717H273.646V287.13C273.646 287.931 273.972 288.331 274.623 288.331C275.313 288.331 275.772 288.074 276 287.56V283.717H276.903V289H276.044L276.024 288.478ZM280.834 284.527C280.697 284.505 280.549 284.493 280.39 284.493C279.797 284.493 279.395 284.745 279.184 285.25V289H278.28V283.717H279.159L279.174 284.327C279.47 283.855 279.89 283.619 280.434 283.619C280.609 283.619 280.743 283.642 280.834 283.688V284.527ZM283.764 289.098C283.048 289.098 282.465 288.863 282.016 288.395C281.566 287.923 281.342 287.293 281.342 286.505V286.339C281.342 285.815 281.441 285.348 281.64 284.938C281.841 284.524 282.121 284.202 282.479 283.971C282.841 283.736 283.231 283.619 283.651 283.619C284.338 283.619 284.872 283.845 285.253 284.298C285.634 284.75 285.824 285.398 285.824 286.241V286.617H282.245C282.258 287.138 282.41 287.56 282.699 287.882C282.992 288.201 283.363 288.36 283.812 288.36C284.132 288.36 284.402 288.295 284.623 288.165C284.844 288.035 285.038 287.862 285.204 287.647L285.756 288.077C285.313 288.757 284.649 289.098 283.764 289.098ZM283.651 284.361C283.287 284.361 282.981 284.495 282.733 284.762C282.486 285.025 282.333 285.396 282.274 285.875H284.921V285.807C284.895 285.348 284.771 284.993 284.55 284.742C284.328 284.488 284.029 284.361 283.651 284.361ZM289.95 287.599C289.95 287.354 289.857 287.166 289.672 287.032C289.49 286.896 289.169 286.778 288.71 286.681C288.254 286.583 287.891 286.466 287.621 286.329C287.354 286.192 287.156 286.03 287.025 285.841C286.898 285.652 286.835 285.427 286.835 285.167C286.835 284.734 287.017 284.368 287.382 284.068C287.75 283.769 288.218 283.619 288.788 283.619C289.387 283.619 289.872 283.774 290.243 284.083C290.618 284.392 290.805 284.788 290.805 285.27H289.896C289.896 285.022 289.791 284.809 289.579 284.63C289.371 284.451 289.107 284.361 288.788 284.361C288.459 284.361 288.202 284.433 288.017 284.576C287.831 284.719 287.738 284.907 287.738 285.138C287.738 285.356 287.825 285.52 287.997 285.631C288.17 285.742 288.48 285.847 288.93 285.948C289.382 286.049 289.748 286.17 290.028 286.31C290.308 286.45 290.515 286.619 290.648 286.817C290.785 287.013 290.854 287.252 290.854 287.535C290.854 288.007 290.665 288.386 290.287 288.673C289.91 288.956 289.42 289.098 288.817 289.098C288.394 289.098 288.02 289.023 287.694 288.873C287.369 288.723 287.113 288.515 286.928 288.248C286.745 287.978 286.654 287.687 286.654 287.374H287.558C287.574 287.677 287.694 287.918 287.919 288.097C288.147 288.272 288.446 288.36 288.817 288.36C289.159 288.36 289.433 288.292 289.638 288.155C289.846 288.015 289.95 287.83 289.95 287.599ZM292.05 288.526C292.05 288.37 292.095 288.24 292.187 288.136C292.281 288.032 292.421 287.979 292.606 287.979C292.792 287.979 292.932 288.032 293.026 288.136C293.124 288.24 293.173 288.37 293.173 288.526C293.173 288.676 293.124 288.801 293.026 288.902C292.932 289.003 292.792 289.054 292.606 289.054C292.421 289.054 292.281 289.003 292.187 288.902C292.095 288.801 292.05 288.676 292.05 288.526Z" fill="#A9B4C2"/>
<path d="M139.33 260.364L143.574 267.886V272H146.017V267.886L150.261 260.364H147.506L144.852 265.375H144.739L142.085 260.364H139.33ZM153.89 272.17C156.538 272.17 158.186 270.358 158.186 267.67C158.186 264.966 156.538 263.159 153.89 263.159C151.243 263.159 149.595 264.966 149.595 267.67C149.595 270.358 151.243 272.17 153.89 272.17ZM153.902 270.295C152.68 270.295 152.055 269.176 152.055 267.653C152.055 266.131 152.68 265.006 153.902 265.006C155.101 265.006 155.726 266.131 155.726 267.653C155.726 269.176 155.101 270.295 153.902 270.295ZM165.556 268.284C165.562 269.455 164.761 270.068 163.891 270.068C162.977 270.068 162.386 269.426 162.38 268.398V263.273H159.96V268.83C159.965 270.869 161.159 272.114 162.914 272.114C164.227 272.114 165.17 271.438 165.562 270.415H165.653V272H167.977V263.273H165.556V268.284ZM176.505 272.165C177.794 272.165 178.63 271.602 179.056 270.79H179.124V272H181.419V266.114C181.419 264.034 179.658 263.159 177.715 263.159C175.624 263.159 174.249 264.159 173.914 265.75L176.152 265.932C176.317 265.352 176.834 264.926 177.703 264.926C178.527 264.926 178.999 265.341 178.999 266.057V266.091C178.999 266.653 178.402 266.727 176.885 266.875C175.158 267.034 173.607 267.614 173.607 269.562C173.607 271.29 174.84 272.165 176.505 272.165ZM177.198 270.494C176.453 270.494 175.919 270.148 175.919 269.483C175.919 268.801 176.482 268.466 177.334 268.347C177.862 268.273 178.726 268.148 179.016 267.955V268.881C179.016 269.795 178.26 270.494 177.198 270.494ZM183.497 272H185.918V267.062C185.918 265.989 186.702 265.25 187.77 265.25C188.105 265.25 188.565 265.307 188.793 265.381V263.233C188.577 263.182 188.276 263.148 188.031 263.148C187.054 263.148 186.253 263.716 185.935 264.795H185.844V263.273H183.497V272ZM193.815 272.17C195.974 272.17 197.429 271.119 197.77 269.5L195.531 269.352C195.287 270.017 194.662 270.364 193.855 270.364C192.645 270.364 191.878 269.562 191.878 268.261V268.256H197.821V267.591C197.821 264.625 196.025 263.159 193.718 263.159C191.15 263.159 189.486 264.983 189.486 267.676C189.486 270.443 191.128 272.17 193.815 272.17ZM191.878 266.756C191.929 265.761 192.684 264.966 193.758 264.966C194.809 264.966 195.537 265.716 195.542 266.756H191.878ZM209.1 268.284C209.106 269.455 208.305 270.068 207.435 270.068C206.52 270.068 205.93 269.426 205.924 268.398V263.273H203.503V268.83C203.509 270.869 204.702 272.114 206.458 272.114C207.77 272.114 208.714 271.438 209.106 270.415H209.197V272H211.52V263.273H209.1V268.284ZM213.657 275.273H216.077V270.602H216.151C216.486 271.33 217.219 272.142 218.628 272.142C220.617 272.142 222.168 270.568 222.168 267.648C222.168 264.648 220.549 263.159 218.634 263.159C217.174 263.159 216.475 264.028 216.151 264.739H216.043V263.273H213.657V275.273ZM216.026 267.636C216.026 266.08 216.685 265.085 217.861 265.085C219.06 265.085 219.696 266.125 219.696 267.636C219.696 269.159 219.049 270.216 217.861 270.216C216.696 270.216 216.026 269.193 216.026 267.636ZM228.624 263.273H226.982V261.182H224.561V263.273H223.368V265.091H224.561V269.636C224.55 271.347 225.714 272.193 227.47 272.119C228.095 272.097 228.538 271.972 228.783 271.892L228.402 270.091C228.283 270.114 228.027 270.17 227.8 270.17C227.317 270.17 226.982 269.989 226.982 269.318V265.091H228.624V263.273ZM234.25 272.17C236.897 272.17 238.545 270.358 238.545 267.67C238.545 264.966 236.897 263.159 234.25 263.159C231.602 263.159 229.954 264.966 229.954 267.67C229.954 270.358 231.602 272.17 234.25 272.17ZM234.261 270.295C233.039 270.295 232.414 269.176 232.414 267.653C232.414 266.131 233.039 265.006 234.261 265.006C235.46 265.006 236.085 266.131 236.085 267.653C236.085 269.176 235.46 270.295 234.261 270.295ZM247.438 272.142C248.847 272.142 249.58 271.33 249.915 270.602H250.018V272H252.404V260.364H249.989V264.739H249.915C249.591 264.028 248.893 263.159 247.432 263.159C245.518 263.159 243.898 264.648 243.898 267.648C243.898 270.568 245.449 272.142 247.438 272.142ZM248.205 270.216C247.018 270.216 246.37 269.159 246.37 267.636C246.37 266.125 247.006 265.085 248.205 265.085C249.381 265.085 250.04 266.08 250.04 267.636C250.04 269.193 249.37 270.216 248.205 270.216ZM257.083 272.165C258.372 272.165 259.208 271.602 259.634 270.79H259.702V272H261.997V266.114C261.997 264.034 260.236 263.159 258.293 263.159C256.202 263.159 254.827 264.159 254.492 265.75L256.73 265.932C256.895 265.352 257.412 264.926 258.282 264.926C259.105 264.926 259.577 265.341 259.577 266.057V266.091C259.577 266.653 258.98 266.727 257.463 266.875C255.736 267.034 254.185 267.614 254.185 269.562C254.185 271.29 255.418 272.165 257.083 272.165ZM257.776 270.494C257.032 270.494 256.497 270.148 256.497 269.483C256.497 268.801 257.06 268.466 257.912 268.347C258.441 268.273 259.304 268.148 259.594 267.955V268.881C259.594 269.795 258.838 270.494 257.776 270.494ZM268.717 263.273H267.075V261.182H264.655V263.273H263.462V265.091H264.655V269.636C264.643 271.347 265.808 272.193 267.564 272.119C268.189 272.097 268.632 271.972 268.876 271.892L268.496 270.091C268.376 270.114 268.121 270.17 267.893 270.17C267.411 270.17 267.075 269.989 267.075 269.318V265.091H268.717V263.273ZM274.378 272.17C276.537 272.17 277.991 271.119 278.332 269.5L276.093 269.352C275.849 270.017 275.224 270.364 274.417 270.364C273.207 270.364 272.44 269.562 272.44 268.261V268.256H278.383V267.591C278.383 264.625 276.588 263.159 274.281 263.159C271.713 263.159 270.048 264.983 270.048 267.676C270.048 270.443 271.69 272.17 274.378 272.17ZM272.44 266.756C272.491 265.761 273.247 264.966 274.321 264.966C275.372 264.966 276.099 265.716 276.105 266.756H272.44Z" fill="#788393"/>
<path d="M208.702 307.989C210.08 307.989 211.196 306.873 211.196 305.495C211.196 304.117 210.08 303 208.702 303C207.324 303 206.207 304.117 206.207 305.495C206.207 306.873 207.324 307.989 208.702 307.989Z" fill="#92D3F5"/>
<path d="M209.324 311.732C210.357 311.732 211.195 310.895 211.195 309.861C211.195 308.828 210.357 307.99 209.324 307.99C208.291 307.99 207.453 308.828 207.453 309.861C207.453 310.895 208.291 311.732 209.324 311.732Z" fill="#B8E3F7"/>
<path d="M207.453 310.484H211.195V324.205H207.453V310.484Z" fill="#B8E3F7"/>
<path d="M205.583 332.939L206.873 335.468L210.431 337.795L214.354 338.36L218.611 336.898L221.77 333.04L222.402 330.014L204.844 330.679L205.176 332.541L205.583 332.939Z" fill="#B8E3F7"/>
<path d="M205.584 328.572L202.495 323.739L201.219 321.712L202.522 320.439L205.79 320.912L207.319 322.559L207.77 324.611L207.369 328.818L205.584 328.572Z" fill="#B8E3F7"/>
<path d="M207.492 320.896V323.501H204.961V332.312H222.424V320.896H207.492Z" fill="#B8E3F7"/>
<path d="M213.418 305.24C213.418 305.24 217.915 305.24 222.411 308.238Z" fill="#3A3A3A"/>
<path d="M213.418 305.24C213.418 305.24 217.915 305.24 222.411 308.238" stroke="#3A3A3A" stroke-width="0.5" stroke-miterlimit="10" stroke-linecap="round" stroke-linejoin="round"/>
<path d="M204.423 305.24C204.423 305.24 199.926 305.24 195.43 308.238Z" fill="#3A3A3A"/>
<path d="M204.423 305.24C204.423 305.24 199.926 305.24 195.43 308.238" stroke="#3A3A3A" stroke-width="0.5" stroke-miterlimit="10" stroke-linecap="round" stroke-linejoin="round"/>
<path d="M222.188 304.246L223.003 308.761" stroke="#3A3A3A" stroke-width="0.5" stroke-miterlimit="10" stroke-linecap="round" stroke-linejoin="round"/>
<path d="M218.484 309.579L222.999 308.764" stroke="#3A3A3A" stroke-width="0.5" stroke-miterlimit="10" stroke-linecap="round" stroke-linejoin="round"/>
<path d="M195.815 304.246L195 308.761" stroke="#3A3A3A" stroke-width="0.5" stroke-miterlimit="10" stroke-linecap="round" stroke-linejoin="round"/>
<path d="M199.515 309.579L195 308.764" stroke="#3A3A3A" stroke-width="0.5" stroke-miterlimit="10" stroke-linecap="round" stroke-linejoin="round"/>
<path d="M222.436 329.535C222.436 334.404 218.489 338.351 213.62 338.351C208.751 338.351 204.805 334.404 204.805 329.535" stroke="#7C7A7A" stroke-width="0.5" stroke-miterlimit="10" stroke-linecap="round" stroke-linejoin="round"/>
<path d="M222.434 329.064V322.635" stroke="#7C7A7A" stroke-width="0.5" stroke-miterlimit="10" stroke-linecap="round" stroke-linejoin="round"/>
<path d="M218.691 322.478C218.702 322.232 218.76 321.991 218.864 321.767C218.968 321.544 219.114 321.343 219.296 321.176C219.477 321.01 219.689 320.88 219.921 320.796C220.152 320.711 220.397 320.673 220.644 320.683C220.89 320.694 221.131 320.752 221.355 320.856C221.578 320.96 221.779 321.106 221.945 321.288C222.112 321.469 222.241 321.681 222.326 321.912C222.411 322.144 222.449 322.389 222.438 322.635" stroke="#7C7A7A" stroke-width="0.5" stroke-miterlimit="10" stroke-linecap="round" stroke-linejoin="round"/>
<path d="M214.938 322.357C214.948 322.111 215.006 321.87 215.11 321.646C215.214 321.423 215.361 321.222 215.542 321.055C215.723 320.889 215.935 320.759 216.167 320.675C216.398 320.59 216.644 320.552 216.89 320.562C217.136 320.573 217.377 320.631 217.601 320.735C217.824 320.839 218.025 320.985 218.191 321.167C218.358 321.348 218.487 321.56 218.572 321.791C218.657 322.023 218.695 322.268 218.685 322.514" stroke="#7C7A7A" stroke-width="0.5" stroke-miterlimit="10" stroke-linecap="round" stroke-linejoin="round"/>
<path d="M214.938 322.285C214.977 321.789 215.212 321.33 215.591 321.008C215.97 320.685 216.461 320.527 216.957 320.567C217.452 320.606 217.912 320.842 218.234 321.22C218.556 321.599 218.715 322.09 218.675 322.586" stroke="#7C7A7A" stroke-width="0.5" stroke-miterlimit="10" stroke-linecap="round" stroke-linejoin="round"/>
<path d="M211.168 322.1C211.211 321.612 211.443 321.16 211.814 320.841C212.186 320.522 212.667 320.361 213.156 320.393C213.645 320.424 214.102 320.645 214.429 321.009C214.757 321.372 214.93 321.85 214.91 322.339" stroke="#7C7A7A" stroke-width="0.5" stroke-miterlimit="10" stroke-linecap="round" stroke-linejoin="round"/>
<path d="M202.085 323.289C201.739 322.931 201.55 322.451 201.559 321.954C201.568 321.456 201.773 320.983 202.131 320.638C202.489 320.292 202.969 320.103 203.466 320.112C203.963 320.12 204.437 320.326 204.782 320.684" stroke="#7C7A7A" stroke-width="0.5" stroke-miterlimit="10" stroke-linecap="round" stroke-linejoin="round"/>
<path d="M207.414 310.111C207.414 309.614 207.612 309.137 207.963 308.786C208.315 308.434 208.792 308.236 209.289 308.236C209.786 308.236 210.263 308.434 210.615 308.786C210.967 309.137 211.164 309.614 211.164 310.111" stroke="#7C7A7A" stroke-width="0.5" stroke-miterlimit="10" stroke-linecap="round" stroke-linejoin="round"/>
<path d="M211.168 322.079V310.113" stroke="#7C7A7A" stroke-width="0.5" stroke-miterlimit="10" stroke-linecap="round" stroke-linejoin="round"/>
<path d="M207.414 310.113V325.002" stroke="#7C7A7A" stroke-width="0.5" stroke-miterlimit="10" stroke-linecap="round" stroke-linejoin="round"/>
<path d="M205.834 321.872L204.785 320.686" stroke="#7C7A7A" stroke-width="0.5" stroke-miterlimit="10" stroke-linecap="round" stroke-linejoin="round"/>
<path d="M203.031 324.535C204.077 325.684 204.838 327.304 204.799 329.637" stroke="#7C7A7A" stroke-width="0.5" stroke-miterlimit="10" stroke-linecap="round" stroke-linejoin="round"/>
<path d="M202.086 323.289L203.062 324.564" stroke="#7C7A7A" stroke-width="0.5" stroke-miterlimit="10" stroke-linecap="round" stroke-linejoin="round"/>
<path d="M210.279 306.503C210.469 306.206 210.571 305.861 210.574 305.508C210.577 305.155 210.48 304.809 210.294 304.509C210.108 304.209 209.841 303.968 209.524 303.813C209.207 303.658 208.853 303.596 208.502 303.634C208.151 303.672 207.818 303.808 207.541 304.027C207.265 304.246 207.056 304.539 206.938 304.872C206.821 305.205 206.8 305.564 206.878 305.908C206.957 306.252 207.13 306.567 207.38 306.817" stroke="#7C7A7A" stroke-width="0.5" stroke-miterlimit="10" stroke-linecap="round" stroke-linejoin="round"/>
<path d="M174.113 359.312L175.973 363.953L177.832 359.312H178.805V365H178.055V362.785L178.125 360.395L176.258 365H175.684L173.82 360.406L173.895 362.785V365H173.145V359.312H174.113ZM182.625 365C182.583 364.917 182.549 364.768 182.523 364.555C182.188 364.904 181.786 365.078 181.32 365.078C180.904 365.078 180.561 364.961 180.293 364.727C180.027 364.49 179.895 364.19 179.895 363.828C179.895 363.388 180.061 363.047 180.395 362.805C180.73 362.56 181.202 362.438 181.809 362.438H182.512V362.105C182.512 361.853 182.436 361.652 182.285 361.504C182.134 361.353 181.911 361.277 181.617 361.277C181.359 361.277 181.143 361.342 180.969 361.473C180.794 361.603 180.707 361.76 180.707 361.945H179.98C179.98 361.734 180.055 361.531 180.203 361.336C180.354 361.138 180.557 360.982 180.812 360.867C181.07 360.753 181.353 360.695 181.66 360.695C182.147 360.695 182.529 360.818 182.805 361.062C183.081 361.305 183.224 361.639 183.234 362.066V364.012C183.234 364.4 183.284 364.708 183.383 364.938V365H182.625ZM181.426 364.449C181.652 364.449 181.867 364.391 182.07 364.273C182.273 364.156 182.421 364.004 182.512 363.816V362.949H181.945C181.06 362.949 180.617 363.208 180.617 363.727C180.617 363.953 180.693 364.13 180.844 364.258C180.995 364.385 181.189 364.449 181.426 364.449ZM184.191 362.852C184.191 362.203 184.345 361.682 184.652 361.289C184.96 360.893 185.362 360.695 185.859 360.695C186.354 360.695 186.746 360.865 187.035 361.203V359H187.758V365H187.094L187.059 364.547C186.77 364.901 186.367 365.078 185.852 365.078C185.362 365.078 184.962 364.878 184.652 364.477C184.345 364.076 184.191 363.552 184.191 362.906V362.852ZM184.914 362.934C184.914 363.413 185.013 363.788 185.211 364.059C185.409 364.329 185.682 364.465 186.031 364.465C186.49 364.465 186.824 364.259 187.035 363.848V361.906C186.819 361.508 186.487 361.309 186.039 361.309C185.685 361.309 185.409 361.445 185.211 361.719C185.013 361.992 184.914 362.397 184.914 362.934ZM190.637 365.078C190.064 365.078 189.598 364.891 189.238 364.516C188.879 364.138 188.699 363.634 188.699 363.004V362.871C188.699 362.452 188.779 362.078 188.938 361.75C189.099 361.419 189.323 361.161 189.609 360.977C189.898 360.789 190.211 360.695 190.547 360.695C191.096 360.695 191.523 360.876 191.828 361.238C192.133 361.6 192.285 362.118 192.285 362.793V363.094H189.422C189.432 363.51 189.553 363.848 189.785 364.105C190.02 364.361 190.316 364.488 190.676 364.488C190.931 364.488 191.147 364.436 191.324 364.332C191.501 364.228 191.656 364.09 191.789 363.918L192.23 364.262C191.876 364.806 191.345 365.078 190.637 365.078ZM190.547 361.289C190.255 361.289 190.01 361.396 189.812 361.609C189.615 361.82 189.492 362.117 189.445 362.5H191.562V362.445C191.542 362.078 191.443 361.794 191.266 361.594C191.089 361.391 190.849 361.289 190.547 361.289ZM196.027 365H195.277V359.312H196.027V365ZM197.973 360.773L197.996 361.305C198.319 360.898 198.741 360.695 199.262 360.695C200.155 360.695 200.605 361.199 200.613 362.207V365H199.891V362.203C199.888 361.898 199.818 361.673 199.68 361.527C199.544 361.382 199.332 361.309 199.043 361.309C198.809 361.309 198.603 361.371 198.426 361.496C198.249 361.621 198.111 361.785 198.012 361.988V365H197.289V360.773H197.973ZM204.605 365H203.855V359.312H204.605V365ZM206.551 360.773L206.574 361.305C206.897 360.898 207.319 360.695 207.84 360.695C208.733 360.695 209.184 361.199 209.191 362.207V365H208.469V362.203C208.466 361.898 208.396 361.673 208.258 361.527C208.122 361.382 207.91 361.309 207.621 361.309C207.387 361.309 207.181 361.371 207.004 361.496C206.827 361.621 206.689 361.785 206.59 361.988V365H205.867V360.773H206.551ZM210.105 362.852C210.105 362.203 210.259 361.682 210.566 361.289C210.874 360.893 211.276 360.695 211.773 360.695C212.268 360.695 212.66 360.865 212.949 361.203V359H213.672V365H213.008L212.973 364.547C212.684 364.901 212.281 365.078 211.766 365.078C211.276 365.078 210.876 364.878 210.566 364.477C210.259 364.076 210.105 363.552 210.105 362.906V362.852ZM210.828 362.934C210.828 363.413 210.927 363.788 211.125 364.059C211.323 364.329 211.596 364.465 211.945 364.465C212.404 364.465 212.738 364.259 212.949 363.848V361.906C212.733 361.508 212.401 361.309 211.953 361.309C211.599 361.309 211.323 361.445 211.125 361.719C210.927 361.992 210.828 362.397 210.828 362.934ZM215.582 365H214.859V360.773H215.582V365ZM214.801 359.652C214.801 359.535 214.836 359.436 214.906 359.355C214.979 359.275 215.086 359.234 215.227 359.234C215.367 359.234 215.474 359.275 215.547 359.355C215.62 359.436 215.656 359.535 215.656 359.652C215.656 359.77 215.62 359.867 215.547 359.945C215.474 360.023 215.367 360.062 215.227 360.062C215.086 360.062 214.979 360.023 214.906 359.945C214.836 359.867 214.801 359.77 214.801 359.652ZM219.352 365C219.31 364.917 219.276 364.768 219.25 364.555C218.914 364.904 218.513 365.078 218.047 365.078C217.63 365.078 217.288 364.961 217.02 364.727C216.754 364.49 216.621 364.19 216.621 363.828C216.621 363.388 216.788 363.047 217.121 362.805C217.457 362.56 217.928 362.438 218.535 362.438H219.238V362.105C219.238 361.853 219.163 361.652 219.012 361.504C218.861 361.353 218.638 361.277 218.344 361.277C218.086 361.277 217.87 361.342 217.695 361.473C217.521 361.603 217.434 361.76 217.434 361.945H216.707C216.707 361.734 216.781 361.531 216.93 361.336C217.081 361.138 217.284 360.982 217.539 360.867C217.797 360.753 218.079 360.695 218.387 360.695C218.874 360.695 219.255 360.818 219.531 361.062C219.807 361.305 219.951 361.639 219.961 362.066V364.012C219.961 364.4 220.01 364.708 220.109 364.938V365H219.352ZM218.152 364.449C218.379 364.449 218.594 364.391 218.797 364.273C219 364.156 219.147 364.004 219.238 363.816V362.949H218.672C217.786 362.949 217.344 363.208 217.344 363.727C217.344 363.953 217.419 364.13 217.57 364.258C217.721 364.385 217.915 364.449 218.152 364.449ZM226.82 364.004L227.633 360.773H228.355L227.125 365H226.539L225.512 361.797L224.512 365H223.926L222.699 360.773H223.418L224.25 363.938L225.234 360.773H225.816L226.82 364.004ZM229.879 365H229.156V360.773H229.879V365ZM229.098 359.652C229.098 359.535 229.133 359.436 229.203 359.355C229.276 359.275 229.383 359.234 229.523 359.234C229.664 359.234 229.771 359.275 229.844 359.355C229.917 359.436 229.953 359.535 229.953 359.652C229.953 359.77 229.917 359.867 229.844 359.945C229.771 360.023 229.664 360.062 229.523 360.062C229.383 360.062 229.276 360.023 229.203 359.945C229.133 359.867 229.098 359.77 229.098 359.652ZM232.02 359.75V360.773H232.809V361.332H232.02V363.953C232.02 364.122 232.055 364.25 232.125 364.336C232.195 364.419 232.315 364.461 232.484 364.461C232.568 364.461 232.682 364.445 232.828 364.414V365C232.638 365.052 232.453 365.078 232.273 365.078C231.951 365.078 231.707 364.98 231.543 364.785C231.379 364.59 231.297 364.312 231.297 363.953V361.332H230.527V360.773H231.297V359.75H232.02ZM234.379 361.285C234.699 360.892 235.116 360.695 235.629 360.695C236.522 360.695 236.973 361.199 236.98 362.207V365H236.258V362.203C236.255 361.898 236.185 361.673 236.047 361.527C235.911 361.382 235.699 361.309 235.41 361.309C235.176 361.309 234.97 361.371 234.793 361.496C234.616 361.621 234.478 361.785 234.379 361.988V365H233.656V359H234.379V361.285Z" fill="#A9B4C2"/>
<path d="M246.88 358C246.04 358 245.333 358.48 245 359.173C244.667 358.48 243.96 358 243.12 358C241.96 358 241 358.987 241 360.12C241 362.053 245 366 245 366C245 366 249 362.053 249 360.12C249 358.987 248.04 358 246.88 358Z" fill="#FF5A79"/>
<path d="M280.765 216.765C320.67 176.859 320.67 112.16 280.765 72.2549C240.859 32.3496 176.16 32.3496 136.255 72.2549C96.3496 112.16 96.3496 176.859 136.255 216.765C176.16 256.67 240.859 256.67 280.765 216.765Z" fill="#F1F1F1"/>
<path d="M208.925 55.0785C208.824 55.2053 208.882 55.206 208.779 55.0785C193.966 74.2313 191.11 90.638 192.755 103.203C192.813 103.647 192.878 104.092 192.948 104.535L192.949 104.548C195.166 118.507 202.951 127.643 205.21 130.029L204.481 130.757L205.938 133.671H211.765L213.222 130.757L212.494 130.029C214.189 128.266 215.723 126.355 217.077 124.319L217.08 124.319C217.479 123.655 217.814 123.695 220.506 126.387L227.061 132.942C228.379 134.26 229.567 134.074 229.566 132.614C229.562 129.08 229.552 128.225 229.546 120.211C229.541 114.146 228.148 112.001 223.644 110.002C227.296 96.8263 226.566 77.9176 208.925 55.0785Z" fill="#63CDFF" fill-opacity="0.4"/>
<path d="M211.761 133.667L205.934 133.667L204.477 130.753L205.934 129.297L211.761 129.297L213.218 130.753L211.761 133.667ZM194.28 110.359C192.526 111.108 192.095 111.087 190.638 112.544C189.181 114.001 188.597 116.596 188.6 120.501C188.604 126.701 188.592 127.558 188.594 132.901C188.596 134.647 190.101 133.475 192.095 131.482C195.907 127.67 198.776 124.619 200.989 124.656C203.912 124.705 194.28 110.359 194.28 110.359ZM208.848 55.002C212.004 59.0896 214.684 63.1198 216.828 66.9467C214.63 66.2758 211.784 65.6341 208.982 65.656C205.871 65.6786 202.832 66.5155 200.671 67.2883C203.8 61.639 206.805 57.6453 208.848 55.002Z" fill="#63CDFF" fill-opacity="0.4"/>
<path opacity="0.3" d="M223.632 109.999C228.134 111.998 229.532 113.988 229.532 120.057C229.532 121.286 229.554 131.483 229.553 132.612C229.552 134.072 228.39 134.233 227.048 132.939L226.574 132.464C226.574 128.094 227.121 118.897 226.32 116.187C225.852 114.599 223.915 113.269 222.678 112.545C221.548 116.239 217.272 123.915 217.068 124.316C215.235 127.09 213.508 128.916 212.481 130.026L212.003 129.548C212.003 129.548 226.798 100.677 208.839 55.0028C226.65 78.0494 227.283 96.8234 223.632 109.999Z" fill="#5F717E"/>
<path d="M212.848 91.7892C210.237 94.3997 205.99 94.3997 203.379 91.7892C200.768 89.1786 200.768 84.9307 203.379 82.3202C205.99 79.7097 210.237 79.7097 212.848 82.3202C215.458 84.9307 215.458 89.1786 212.848 91.7892Z" fill="white"/>
<path d="M204.115 83.0486C205.177 81.9861 206.618 81.3892 208.121 81.3892C209.624 81.3892 211.065 81.9861 212.127 83.0486C213.19 84.1111 213.786 85.5521 213.786 87.0547C213.786 88.5573 213.19 89.9983 212.127 91.0608C211.065 92.1233 209.624 92.7201 208.121 92.7201C206.618 92.7201 205.177 92.1233 204.115 91.0608C203.052 89.9983 202.456 88.5573 202.456 87.0547C202.456 85.5521 203.052 84.1111 204.115 83.0486ZM202.658 81.5918C199.645 84.6051 199.646 89.505 202.658 92.5175C205.671 95.5301 210.571 95.5308 213.584 92.5175C216.597 89.5042 216.596 84.6044 213.584 81.5918C210.571 78.5793 205.671 78.5785 202.658 81.5918Z" fill="#6BADCD"/>
<path d="M205.927 133.667L211.754 133.667L212.482 185.382L203.741 185.382L205.927 133.667Z" fill="#D7DCDE"/>
<path d="M205.836 133.763L208.75 133.763L208.112 189.029L203.742 189.029L205.836 133.763Z" fill="#F7F7F7"/>
<rect x="277.047" y="97.125" width="0.259649" height="5.29808" stroke="#5F717E" stroke-width="0.25"/>
<rect y="0.177885" width="0.262885" height="5.26351" transform="matrix(0.702646 0.71154 -0.702646 0.71154 282.805 100.223)" stroke="#5F717E" stroke-width="0.25"/>
<rect y="0.177885" width="0.262885" height="5.26351" transform="matrix(0.702646 0.71154 -0.702646 0.71154 274.988 108.088)" stroke="#5F717E" stroke-width="0.25"/>
<rect x="286.223" y="106.156" width="0.2661" height="5.22873" transform="rotate(90 286.223 106.156)" stroke="#5F717E" stroke-width="0.25"/>
<rect x="273.355" y="106.156" width="0.2661" height="5.22873" transform="rotate(90 273.355 106.156)" stroke="#5F717E" stroke-width="0.25"/>
<rect x="-0.175661" width="0.262885" height="5.26351" transform="matrix(-0.702646 0.71154 -0.702646 -0.71154 282.744 112.086)" stroke="#5F717E" stroke-width="0.25"/>
<rect x="-0.175661" width="0.262885" height="5.26351" transform="matrix(-0.702646 0.71154 -0.702646 -0.71154 274.931 104.221)" stroke="#5F717E" stroke-width="0.25"/>
<rect x="277.289" y="115.211" width="0.259649" height="5.29808" transform="rotate(-180 277.289 115.211)" stroke="#5F717E" stroke-width="0.25"/>
<rect x="149.902" y="155.097" width="0.194427" height="4.03866" stroke="#5F717E" stroke-width="0.194427"/>
<rect y="0.139221" width="0.195661" height="4.01105" transform="matrix(0.702646 0.71154 -0.702646 0.71154 154.297 157.46)" stroke="#5F717E" stroke-width="0.195661"/>
<rect y="0.139221" width="0.195661" height="4.01105" transform="matrix(0.702646 0.71154 -0.702646 0.71154 148.332 163.462)" stroke="#5F717E" stroke-width="0.195661"/>
<rect x="156.898" y="161.989" width="0.196888" height="3.98329" transform="rotate(90 156.898 161.989)" stroke="#5F717E" stroke-width="0.196888"/>
<rect x="147.081" y="161.989" width="0.196888" height="3.98329" transform="rotate(90 147.081 161.989)" stroke="#5F717E" stroke-width="0.196888"/>
<rect x="-0.13748" width="0.195661" height="4.01105" transform="matrix(-0.702646 0.71154 -0.702646 -0.71154 154.242 166.512)" stroke="#5F717E" stroke-width="0.195661"/>
<rect x="-0.13748" width="0.195661" height="4.01105" transform="matrix(-0.702646 0.71154 -0.702646 -0.71154 148.282 160.512)" stroke="#5F717E" stroke-width="0.195661"/>
<rect x="150.082" y="168.893" width="0.194427" height="4.03866" transform="rotate(-180 150.082 168.893)" stroke="#5F717E" stroke-width="0.194427"/>
<rect x="228.933" y="169.069" width="0.138876" height="2.88476" stroke="#5F717E" stroke-width="0.138876"/>
<rect y="0.0994434" width="0.139758" height="2.86504" transform="matrix(0.702646 0.71154 -0.702646 0.71154 232.07 170.757)" stroke="#5F717E" stroke-width="0.139758"/>
<rect y="0.0994434" width="0.139758" height="2.86504" transform="matrix(0.702646 0.71154 -0.702646 0.71154 227.808 175.044)" stroke="#5F717E" stroke-width="0.139758"/>
<rect x="233.93" y="173.992" width="0.140634" height="2.84521" transform="rotate(90 233.93 173.992)" stroke="#5F717E" stroke-width="0.140634"/>
<rect x="226.914" y="173.992" width="0.140634" height="2.84521" transform="rotate(90 226.914 173.992)" stroke="#5F717E" stroke-width="0.140634"/>
<rect x="-0.0982003" width="0.139758" height="2.86504" transform="matrix(-0.702646 0.71154 -0.702646 -0.71154 232.032 177.224)" stroke="#5F717E" stroke-width="0.139758"/>
<rect x="-0.0982003" width="0.139758" height="2.86504" transform="matrix(-0.702646 0.71154 -0.702646 -0.71154 227.774 172.937)" stroke="#5F717E" stroke-width="0.139758"/>
<rect x="229.059" y="178.923" width="0.138876" height="2.88476" transform="rotate(-180 229.059 178.923)" stroke="#5F717E" stroke-width="0.138876"/>
<rect x="193.933" y="225.069" width="0.138876" height="2.88476" stroke="#5F717E" stroke-width="0.138876"/>
<rect y="0.0994434" width="0.139758" height="2.86504" transform="matrix(0.702646 0.71154 -0.702646 0.71154 197.07 226.757)" stroke="#5F717E" stroke-width="0.139758"/>
<rect y="0.0994434" width="0.139758" height="2.86504" transform="matrix(0.702646 0.71154 -0.702646 0.71154 192.808 231.044)" stroke="#5F717E" stroke-width="0.139758"/>
<rect x="198.93" y="229.992" width="0.140634" height="2.84521" transform="rotate(90 198.93 229.992)" stroke="#5F717E" stroke-width="0.140634"/>
<rect x="191.914" y="229.992" width="0.140634" height="2.84521" transform="rotate(90 191.914 229.992)" stroke="#5F717E" stroke-width="0.140634"/>
<rect x="-0.0982003" width="0.139758" height="2.86504" transform="matrix(-0.702646 0.71154 -0.702646 -0.71154 197.032 233.224)" stroke="#5F717E" stroke-width="0.139758"/>
<rect x="-0.0982003" width="0.139758" height="2.86504" transform="matrix(-0.702646 0.71154 -0.702646 -0.71154 192.774 228.937)" stroke="#5F717E" stroke-width="0.139758"/>
<rect x="194.059" y="234.923" width="0.138876" height="2.88476" transform="rotate(-180 194.059 234.923)" stroke="#5F717E" stroke-width="0.138876"/>
<rect x="163.946" y="87.0555" width="0.111081" height="2.30739" stroke="#5F717E" stroke-width="0.111081"/>
<rect y="0.0795405" width="0.111786" height="2.29162" transform="matrix(0.702646 0.71154 -0.702646 0.71154 166.454 88.4058)" stroke="#5F717E" stroke-width="0.111786"/>
<rect y="0.0795405" width="0.111786" height="2.29162" transform="matrix(0.702646 0.71154 -0.702646 0.71154 163.048 91.8354)" stroke="#5F717E" stroke-width="0.111786"/>
<rect x="167.944" y="90.9937" width="0.112487" height="2.27576" transform="rotate(90 167.944 90.9937)" stroke="#5F717E" stroke-width="0.112487"/>
<rect x="162.33" y="90.9937" width="0.112487" height="2.27576" transform="rotate(90 162.33 90.9937)" stroke="#5F717E" stroke-width="0.112487"/>
<rect x="-0.0785463" width="0.111786" height="2.29162" transform="matrix(-0.702646 0.71154 -0.702646 -0.71154 166.425 93.5774)" stroke="#5F717E" stroke-width="0.111786"/>
<rect x="-0.0785463" width="0.111786" height="2.29162" transform="matrix(-0.702646 0.71154 -0.702646 -0.71154 163.019 90.1496)" stroke="#5F717E" stroke-width="0.111786"/>
<rect x="164.05" y="94.9366" width="0.111081" height="2.30739" transform="rotate(-180 164.05 94.9366)" stroke="#5F717E" stroke-width="0.111081"/>
<rect x="264.96" y="203.042" width="0.0833135" height="1.7306" stroke="#5F717E" stroke-width="0.0833135"/>
<rect y="0.0596573" width="0.0838425" height="1.71877" transform="matrix(0.702646 0.71154 -0.702646 0.71154 266.843 204.054)" stroke="#5F717E" stroke-width="0.0838425"/>
<rect y="0.0596573" width="0.0838425" height="1.71877" transform="matrix(0.702646 0.71154 -0.702646 0.71154 264.288 206.627)" stroke="#5F717E" stroke-width="0.0838425"/>
<rect x="267.958" y="205.995" width="0.0843682" height="1.70687" transform="rotate(90 267.958 205.995)" stroke="#5F717E" stroke-width="0.0843682"/>
<rect x="263.751" y="205.995" width="0.0843682" height="1.70687" transform="rotate(90 263.751 205.995)" stroke="#5F717E" stroke-width="0.0843682"/>
<rect x="-0.0589116" width="0.0838425" height="1.71877" transform="matrix(-0.702646 0.71154 -0.702646 -0.71154 266.822 207.933)" stroke="#5F717E" stroke-width="0.0838425"/>
<rect x="-0.0589116" width="0.0838425" height="1.71877" transform="matrix(-0.702646 0.71154 -0.702646 -0.71154 264.267 205.362)" stroke="#5F717E" stroke-width="0.0838425"/>
<rect x="265.04" y="208.952" width="0.0833135" height="1.7306" transform="rotate(-180 265.04 208.952)" stroke="#5F717E" stroke-width="0.0833135"/>
<defs>
<filter id="filter0_d" x="0" y="4" width="413" height="389" filterUnits="userSpaceOnUse" color-interpolation-filters="sRGB">
<feFlood flood-opacity="0" result="BackgroundImageFix"/>
<feColorMatrix in="SourceAlpha" type="matrix" values="0 0 0 0 0 0 0 0 0 0 0 0 0 0 0 0 0 0 127 0"/>
<feOffset dy="1"/>
<feGaussianBlur stdDeviation="10"/>
<feColorMatrix type="matrix" values="0 0 0 0 0 0 0 0 0 0 0 0 0 0 0 0 0 0 0.25 0"/>
<feBlend mode="normal" in2="BackgroundImageFix" result="effect1_dropShadow"/>
<feBlend mode="normal" in="SourceGraphic" in2="effect1_dropShadow" result="shape"/>
</filter>
</defs>
</svg>
